<svg xmlns="http://www.w3.org/2000/svg" viewBox="0 0 24 24" class="ew-icon" data-motion="swing">
<g class="ew-chrome">
    <path class="ew-backdrop" fill="var(--ew-bg, currentColor)" fill-opacity="var(--ew-bg-opacity, 0.07)"
          d="M12 1.6 C 18 2.4 22.4 6.4 22.4 12 C 22.4 17.6 18 22 12 22.4 C 6 22 1.6 17.6 1.6 12 C 1.6 6.4 6 2.4 12 1.6 Z"/>
    <path fill="none" stroke="currentColor" stroke-width="0.7" opacity="0.45" stroke-dasharray="0.4 1.8" stroke-linecap="round"
          d="M12 3.2 C 17.2 3.9 20.8 7.2 20.8 12 C 20.8 16.8 17.2 20.4 12 20.8 C 6.8 20.4 3.2 16.8 3.2 12 C 3.2 7.2 6.8 3.9 12 3.2 Z"/>
  </g>
  <g class="ew-body-anchor" transform="translate(12 12.4)"><g class="ew-body"><circle cx="0" cy="-4.4" r="1.8" fill="none" stroke="var(--ew-accent,#f5b820)" stroke-width="1.4"/><path d="M0 -2.6 V5.4 M-4.4 1 C -4.4 4 -2 5.4 0 5.4 C 2 5.4 4.4 4 4.4 1 M-2.6 -0.6 H2.6" fill="none" stroke="var(--ew-highlight, #8fb89a)" stroke-width="1.4" stroke-linecap="round"/></g>
  </g>
</svg>