<svg xmlns="http://www.w3.org/2000/svg" viewBox="0 0 24 24" class="ew-icon" data-motion="rise">
<g class="ew-chrome">
    <path class="ew-backdrop" fill="var(--ew-bg, currentColor)" fill-opacity="var(--ew-bg-opacity, 0.07)"
          d="M12 1.6 C 18 2.4 22.4 6.4 22.4 12 C 22.4 17.6 18 22 12 22.4 C 6 22 1.6 17.6 1.6 12 C 1.6 6.4 6 2.4 12 1.6 Z"/>
    <path fill="none" stroke="currentColor" stroke-width="0.7" opacity="0.45" stroke-dasharray="0.4 1.8" stroke-linecap="round"
          d="M12 3.2 C 17.2 3.9 20.8 7.2 20.8 12 C 20.8 16.8 17.2 20.4 12 20.8 C 6.8 20.4 3.2 16.8 3.2 12 C 3.2 7.2 6.8 3.9 12 3.2 Z"/>
  </g>
  <g class="ew-body-anchor" transform="translate(12 12.4)"><g class="ew-body"><path d="M-3.6 1 C -5.6 1 -6.4 -0.6 -6 -2.2 C -5.6 -3.6 -4 -4.2 -2.8 -3.8 C -2.4 -6.4 0 -7 2.4 -6 C 4 -5.4 4.6 -3.8 4.4 -2.4 M4.4 -2.4 C 6.2 -2.4 6.8 -1 6.4 0.4" fill="none" stroke="var(--ew-secondary, #8fb89a)" stroke-width="1.2" stroke-linecap="round" stroke-linejoin="round"/><path d="M0 0 V5.4 M-2 3.4 L0 5.6 L2 3.4" fill="none" stroke="var(--ew-accent,#f5b820)" stroke-width="1.4" stroke-linecap="round" stroke-linejoin="round"/></g>
  </g>
</svg>