<svg xmlns="http://www.w3.org/2000/svg" viewBox="0 0 24 24" class="ew-icon" data-motion="pop">
<g class="ew-chrome">
    <path class="ew-backdrop" fill="var(--ew-bg, currentColor)" fill-opacity="var(--ew-bg-opacity, 0.07)"
          d="M12 1.6 C 18 2.4 22.4 6.4 22.4 12 C 22.4 17.6 18 22 12 22.4 C 6 22 1.6 17.6 1.6 12 C 1.6 6.4 6 2.4 12 1.6 Z"/>
    <path fill="none" stroke="currentColor" stroke-width="0.7" opacity="0.45" stroke-dasharray="0.4 1.8" stroke-linecap="round"
          d="M12 3.2 C 17.2 3.9 20.8 7.2 20.8 12 C 20.8 16.8 17.2 20.4 12 20.8 C 6.8 20.4 3.2 16.8 3.2 12 C 3.2 7.2 6.8 3.9 12 3.2 Z"/>
  </g>
  <g class="ew-body-anchor" transform="translate(12 12.4)"><g class="ew-body"><circle cx="-2.8" cy="-2.4" r="2.6" fill="var(--ew-secondary, #8fb89a)" stroke="var(--ew-outline, #1a3a2a)" stroke-width="0.9"/>
    <path d="M-7 5 C -7 1.6 -5 0.4 -2.8 0.4 C -0.6 0.4 1.4 1.6 1.4 5 Z" fill="var(--ew-glyph, #3a6b48)" stroke="var(--ew-outline, #1a3a2a)" stroke-width="0.9" stroke-linejoin="round"/>
    <circle cx="3.4" cy="-3" r="2.2" fill="var(--ew-accent,#f5b820)" stroke="var(--ew-outline, #1a3a2a)" stroke-width="0.9"/>
    <path d="M1.4 4.4 C 1.6 1.8 3 0.8 4.6 0.8 C 6.4 0.8 7.4 2.2 7.4 4.4 Z" fill="var(--ew-glyph-2, #2a5a3b)" stroke="var(--ew-outline, #1a3a2a)" stroke-width="0.9" stroke-linejoin="round"/></g>
  </g>
</svg>