<svg xmlns="http://www.w3.org/2000/svg" viewBox="0 0 24 24" class="ew-icon" data-motion="pop">
<g class="ew-chrome">
    <path class="ew-backdrop" fill="var(--ew-bg, currentColor)" fill-opacity="var(--ew-bg-opacity, 0.07)"
          d="M12 1.6 C 18 2.4 22.4 6.4 22.4 12 C 22.4 17.6 18 22 12 22.4 C 6 22 1.6 17.6 1.6 12 C 1.6 6.4 6 2.4 12 1.6 Z"/>
    <path fill="none" stroke="currentColor" stroke-width="0.7" opacity="0.45" stroke-dasharray="0.4 1.8" stroke-linecap="round"
          d="M12 3.2 C 17.2 3.9 20.8 7.2 20.8 12 C 20.8 16.8 17.2 20.4 12 20.8 C 6.8 20.4 3.2 16.8 3.2 12 C 3.2 7.2 6.8 3.9 12 3.2 Z"/><g class="ew-splash" aria-hidden="true">
      <circle class="ew-p1" cx="19.6" cy="5.5" r="0.9" fill="var(--ew-accent, #f5b820)"/>
      <circle class="ew-p2" cx="19.6" cy="5.5" r="0.75" fill="var(--ew-accent, #f5b820)"/>
      <circle class="ew-p3" cx="19.6" cy="5.5" r="0.85" fill="var(--ew-accent, #f5b820)"/>
      <circle class="ew-p4" cx="19.6" cy="5.5" r="0.7" fill="var(--ew-accent, #f5b820)"/>
      <circle class="ew-p5" cx="19.6" cy="5.5" r="0.8" fill="var(--ew-accent, #f5b820)"/>
    </g>
  </g>
  <g class="ew-signature" aria-hidden="true"><ellipse cx="18.8" cy="5.0" rx="0.75" ry="1.35" fill="none" stroke="var(--ew-signature, #f5b820)" stroke-width="0.55" transform="rotate(-25 18.8 5.0)"/><ellipse cx="20.3" cy="6.4" rx="0.75" ry="1.35" fill="none" stroke="var(--ew-signature, #f5b820)" stroke-width="0.55" transform="rotate(25 20.3 6.4)"/></g>
  <g class="ew-body-anchor" transform="translate(12 12.4)"><g class="ew-body"><circle cx="-3" cy="-4" r="1.8" fill="var(--ew-accent,#f5b820)" stroke="var(--ew-outline, #0f2017)" stroke-width="0.8"/><circle cx="-3" cy="4" r="1.8" fill="var(--ew-secondary, #8fb89a)" stroke="var(--ew-outline, #0f2017)" stroke-width="0.8"/><circle cx="3" cy="-2" r="1.8" fill="var(--ew-accent,#f5b820)" stroke="var(--ew-outline, #0f2017)" stroke-width="0.8"/><path d="M-3 -2.2 V2.2 M-3 0 C -3 -1.6 -1.4 -2 1.2 -2" fill="none" stroke="var(--ew-highlight, #f5f1e8)" stroke-width="1.2" stroke-linecap="round"/></g>
  </g>
</svg>