<svg xmlns="http://www.w3.org/2000/svg" viewBox="0 0 24 24" class="ew-icon" data-motion="tilt">
<g class="ew-chrome">
    <path class="ew-backdrop" fill="var(--ew-bg, currentColor)" fill-opacity="var(--ew-bg-opacity, 0.07)"
          d="M12 1.6 C 18 2.4 22.4 6.4 22.4 12 C 22.4 17.6 18 22 12 22.4 C 6 22 1.6 17.6 1.6 12 C 1.6 6.4 6 2.4 12 1.6 Z"/>
    <path fill="none" stroke="currentColor" stroke-width="0.7" opacity="0.45" stroke-dasharray="0.4 1.8" stroke-linecap="round"
          d="M12 3.2 C 17.2 3.9 20.8 7.2 20.8 12 C 20.8 16.8 17.2 20.4 12 20.8 C 6.8 20.4 3.2 16.8 3.2 12 C 3.2 7.2 6.8 3.9 12 3.2 Z"/>
    <path class="ew-spark" fill="var(--ew-accent, #f5b820)"
          d="M18.5 3.4 C 20.4 3.4 21.6 4.8 21.4 6.6 C 21.2 7.4 20.4 7.7 19.4 7.5 C 18.4 7.2 17.6 6.4 17.6 5.4 C 17.6 4.4 18 3.8 18.5 3.4 Z"/>
    <g class="ew-splash" aria-hidden="true">
      <circle class="ew-p1" cx="19.6" cy="5.5" r="0.9" fill="var(--ew-accent, #f5b820)"/>
      <circle class="ew-p2" cx="19.6" cy="5.5" r="0.75" fill="var(--ew-accent, #f5b820)"/>
      <circle class="ew-p3" cx="19.6" cy="5.5" r="0.85" fill="var(--ew-accent, #f5b820)"/>
      <circle class="ew-p4" cx="19.6" cy="5.5" r="0.7" fill="var(--ew-accent, #f5b820)"/>
      <circle class="ew-p5" cx="19.6" cy="5.5" r="0.8" fill="var(--ew-accent, #f5b820)"/>
    </g>
  </g>
  <g class="ew-body" transform="translate(12 12.4)">
    <rect x="-5.6" y="-5.6" width="7.2" height="9.4" rx="1.1" fill="#f5f1e8" stroke="#0f2017" stroke-width="0.9"/>
    <rect x="-5.6" y="-5.6" width="7.2" height="2.4" rx="1.1" fill="#1a3a2a"/>
    <line x1="-4" y1="-1.4" x2="0" y2="-1.4" stroke="#8fb89a" stroke-width="0.9" stroke-linecap="round"/>
    <line x1="-4" y1="0.6" x2="-1.4" y2="0.6" stroke="#8fb89a" stroke-width="0.9" stroke-linecap="round"/>
    <circle cx="2.4" cy="2.2" r="3.4" fill="#142a1e" stroke="#0f2017" stroke-width="0.9"/>
    <circle cx="2.4" cy="2.2" r="2" fill="none" stroke="var(--ew-accent,#f5b820)" stroke-width="1"/>
    <rect x="4.6" y="4.2" width="3.4" height="1.7" rx="0.8" transform="rotate(45 4.6 4.2)" fill="var(--ew-accent,#f5b820)" stroke="#0f2017" stroke-width="0.8"/>
  </g>
</svg>